<?xml version="1.0" encoding="UTF-8" standalone="no"?>
<svg
   xmlns:dc="http://purl.org/dc/elements/1.1/"
   xmlns:cc="http://creativecommons.org/ns#"
   xmlns:rdf="http://www.w3.org/1999/02/22-rdf-syntax-ns#"
   xmlns:svg="http://www.w3.org/2000/svg"
   xmlns="http://www.w3.org/2000/svg"
   version="1.1"
   id="svg2"
   viewBox="0 0 600.94556 640.57737"
   height="180.78516mm"
   width="169.60019mm">
  <defs
     id="defs4" />
  <metadata
     id="metadata7">
    <rdf:RDF>
      <cc:Work
         rdf:about="">
        <dc:format>image/svg+xml</dc:format>
        <dc:type
           rdf:resource="http://purl.org/dc/dcmitype/StillImage" />
        <dc:title></dc:title>
      </cc:Work>
    </rdf:RDF>
  </metadata>
  <g
     transform="translate(-311.96212,-93.038328)"
     id="layer1">
    <path
       id="path3413"
       d="m 765.97529,732.95922 c -11.03251,-1.1367 -33.2987,-6.7301 -44.61929,-11.2086 -8.11649,-3.2109 -8.11821,-3.2124 -4.11988,-3.5057 2.2,-0.1614 9.4,0.3978 16,1.2428 6.6,0.845 27.1875,2.077 45.75001,2.7378 40.92695,1.457 91.82943,0.058 116.74466,-3.2082 8.52206,-1.1172 16.16182,-1.9029 16.97725,-1.7458 2.85026,0.5489 -25.57287,8.7736 -36.9719,10.6984 -6.325,1.068 -18.92501,2.6702 -28.00001,3.5604 -19.5862,1.9212 -68.65858,2.7789 -81.76084,1.4289 z m 7.26084,-30.8535 c -5.5,-0.4353 -11.57501,-1.1128 -13.50001,-1.5056 -5.5923,-1.1413 -20.42448,-5.6653 -21.29615,-6.4956 -1.51027,-1.4387 18.95033,-2.0558 67.79616,-2.0447 47.41867,0.011 69.68665,0.8644 73.15305,2.8043 1.52124,0.8513 1.50001,1.0203 -0.24314,1.936 -2.4767,1.3011 -13.10047,2.9821 -26.90991,4.2579 -14.65761,1.3542 -66.44712,2.041 -79,1.0477 z m -231.80757,-36.0393 c -7.48444,-2.9244 -15.14781,-9.3678 -18.37043,-15.446 -3.61484,-6.8179 -4.35059,-16.9232 -5.2846,-72.58204 -0.89307,-53.2195 -1.48294,-62.73563 -4.58699,-74.00001 -1.85712,-6.73933 -28.59261,-61.28754 -29.52844,-60.24664 -0.3692,0.41065 -3.25235,7.72163 -6.40701,16.24663 -12.08666,32.66245 -30.98648,66.03004 -68.81909,121.50002 -30.39508,44.56514 -41.96001,59.58724 -50.9598,66.19374 -4.92032,3.6118 -5.56964,3.8063 -12.71066,3.8063 -5.89035,0 -8.56829,-0.5135 -12.32502,-2.3632 -10.1597,-5.0024 -19.22219,-17.0186 -20.33662,-26.9648 -0.46338,-4.1357 0.0539,-5.8442 4.50559,-14.8814 7.33977,-14.9002 17.79129,-31.84399 41.5071,-67.29065 11.5914,-17.325 24.5999,-37.35 28.90777,-44.5 19.82859,-32.91057 33.35344,-65.82107 71.71224,-174.50002 29.82658,-84.50523 38.27263,-106.18813 47.53431,-122.03113 6.20473,-10.6138 10.64664,-15.41848 17.24494,-18.65332 4.82246,-2.36423 6.98455,-2.80633 13.72425,-2.80633 9.88194,0 15.85978,2.62249 25.52854,11.19944 14.46291,12.82972 27.70453,29.91623 54.47403,70.29134 33.61251,50.69607 59.97725,94.25231 65.8824,108.84198 2.97433,7.34856 3.08885,8.1703 2.83387,20.33452 -0.15455,7.37323 0.13802,12.92602 0.69934,13.27293 1.16794,0.72183 13.92179,-5.95031 36.06816,-18.86895 22.38274,-13.05653 25.28109,-13.66291 28.49858,-5.96236 3.3376,7.98799 -2.21179,12.37681 -41.17611,32.56476 l -16.1912,8.38889 23.80323,51.46413 c 22.12875,47.84378 48.54314,104.31151 73.02066,156.10097 l 10.22631,21.6368 34.16611,0.4956 c 35.29566,0.5121 40.72939,1.112 42.65435,4.7088 1.53272,2.8639 1.22147,9.6694 -0.52197,11.4128 -3.57825,3.5783 -8.15807,3.9241 -57.62662,4.3518 -50.37348,0.4355 -67.00104,-0.3079 -71.40341,-3.1924 -2.97869,-1.9518 -3.99825,-5.7097 -2.8291,-10.4276 1.28206,-5.1735 4.38325,-6.2789 19.88233,-7.087 12.88081,-0.6716 15.51053,-1.1978 15.51053,-3.1035 0,-3.4181 -60.34547,-134.26108 -86.95144,-188.53095 -19.94981,-40.69286 -26.89514,-51.20572 -35.32954,-53.47686 -8.66936,-2.33442 -20.06734,-16.38053 -50.28483,-61.96766 -19.87345,-29.98175 -28.28254,-40.9567 -31.38133,-40.9567 -2.37909,0 -6.35065,5.11388 -8.93117,11.5 -1.55571,3.85 -9.02364,26.50138 -16.59538,50.33641 l -13.76679,43.33641 5.78124,12.16359 c 3.17968,6.68998 13.80878,28.24867 23.62023,47.90819 l 17.83899,35.74461 -0.0158,52.7554 c -0.009,29.01549 -0.45791,58.15546 -0.99825,64.75546 -2.00459,24.4856 -5.85584,37.4394 -13.06819,43.9553 -6.93006,6.2609 -19.76491,8.2691 -29.22528,4.5727 z M 592.73611,182.0007 c -15.84506,-3.3068 -31.49155,-18.89692 -36.54178,-36.41015 -7.14333,-24.77171 15.60971,-52.552222 43.04178,-52.552222 11.32049,0 21.88992,4.36878 30.54719,12.626422 10.13356,9.66579 14.55184,21.06272 13.69198,35.31841 -0.85862,14.2352 -6.49723,25.10814 -17.26307,33.2884 -9.06316,6.88651 -22.57034,10.00512 -33.4761,7.72914 z"
       style="fill:#434343" />
  </g>
</svg>
