<?xml version="1.0" encoding="UTF-8" standalone="no"?>
<svg
   xmlns:dc="http://purl.org/dc/elements/1.1/"
   xmlns:cc="http://creativecommons.org/ns#"
   xmlns:rdf="http://www.w3.org/1999/02/22-rdf-syntax-ns#"
   xmlns:svg="http://www.w3.org/2000/svg"
   xmlns="http://www.w3.org/2000/svg"
   version="1.1"
   id="svg2"
   viewBox="0 0 765.21858 628.33986"
   height="177.33171mm"
   width="215.96169mm">
  <defs
     id="defs4" />
  <metadata
     id="metadata7">
    <rdf:RDF>
      <cc:Work
         rdf:about="">
        <dc:format>image/svg+xml</dc:format>
        <dc:type
           rdf:resource="http://purl.org/dc/dcmitype/StillImage" />
        <dc:title></dc:title>
      </cc:Work>
    </rdf:RDF>
  </metadata>
  <g
     transform="translate(-295.31487,-125.49364)"
     id="layer1">
    <path
       id="path3437"
       d="m 652.5335,629.10733 -47.50001,-0.5475 -5.33936,-2.9576 c -6.35952,-3.5226 -14.03811,-11.6238 -17.30392,-18.2562 -3.45127,-7.0091 -3.25672,-16.9044 0.48263,-24.5474 3.41492,-6.9798 11.00402,-14.0204 16.8578,-15.6393 7.57787,-2.0957 31.44772,-2.9774 114.94276,-4.2456 116.15982,-1.7645 263.01979,0.5027 274.57552,4.2388 5.05806,1.6353 12.86188,9.3315 15.92478,15.7049 2.2146,4.6084 2.749,7.1413 2.7855,13.2024 0.053,8.8011 -2.0858,14.4043 -7.99478,20.9448 -7.76525,8.5952 -16.24944,10.625 -50.4309,12.0654 -23.23913,0.9792 -213.2137,1.0031 -297.00002,0.037 z m 319.68855,-6.8505 c 9.78068,-1.253 15.59363,-3.6502 21.25629,-8.7661 8.97746,-8.1106 11.22546,-19.37 5.73471,-28.7231 -2.92215,-4.9776 -8.65467,-9.8033 -14.67953,-12.3574 -5.93528,-2.5161 -52.25024,-3.2868 -198.00001,-3.295 -159.85877,-0.01 -178.55244,0.6043 -189.99473,6.2334 -8.49823,4.1807 -13.32019,17.167 -10.05168,27.0706 2.58673,7.8379 14.36725,17.5123 23.35407,19.1787 8.3285,1.5445 78.80754,2.1908 213.19234,1.9551 91.03343,-0.1596 143.9018,-0.619 149.18854,-1.2962 z m -362.71918,-4.6842 c -8.68956,-2.7722 -17.92895,-13.8057 -17.95961,-21.4471 -0.0256,-6.3783 6.68794,-14.8302 15.24931,-19.1979 9.31603,-4.7526 23.91756,-1.0913 29.54192,7.4077 2.30021,3.4758 2.69901,5.1351 2.69901,11.2299 0,6.215 -0.39631,7.7925 -3.02644,12.0466 -5.5864,9.0358 -16.52164,13.1455 -26.50419,9.9608 z m 353.91572,-0.8924 c -9.33297,-3.3353 -15.89136,-11.6248 -15.87569,-20.0662 0.019,-10.2471 9.14555,-20.5551 19.58509,-22.1206 14.34315,-2.1509 27.51277,9.6913 26.18181,23.5428 -1.37169,14.2756 -16.21252,23.5322 -29.89121,18.644 z m -261.38509,-1.5659 c -33.27591,-0.7911 -51.48312,-1.7842 -53.1982,-2.9015 -2.49123,-1.6229 -3.6869,-6.3403 -4.09415,-16.153 -0.40256,-9.6998 -0.27566,-10.6443 1.66512,-12.3931 6.13893,-5.5316 28.54868,-6.5216 147.62724,-6.5216 91.55503,0 131.71866,0.9206 140.26318,3.2152 8.92566,2.3969 9.51336,3.4203 9.01358,15.6969 -0.43655,10.7232 -1.81678,15.5631 -4.6991,16.4779 -7.49978,2.3804 -170.29146,4.1551 -236.57767,2.5792 z m -406.33495,4.3476 c 0.34881,-6.9075 0.63137,-7.7784 3.1093,-9.5834 1.49909,-1.092 2.72562,-2.8924 2.72562,-4.0009 0,-1.1085 1.4463,-3.3664 3.21399,-5.0177 l 3.214,-3.0023 -3.464,-2.8935 -3.46399,-2.8936 2.5,-1.9831 c 1.375,-1.0907 2.8375,-1.9931 3.25,-2.0054 1.87901,-0.056 0.45004,-3.0996 -2.41176,-5.1374 l -3.16175,-2.2513 3.16175,-2.6396 c 1.73897,-1.4517 3.16176,-3.024 3.16176,-3.4939 0,-0.4699 -1.42279,-2.0421 -3.16176,-3.4939 l -3.16175,-2.6395 3.16175,-2.2514 c 1.73897,-1.2383 3.16176,-2.6998 3.16176,-3.2478 0,-0.5481 -1.3737,-2.1524 -3.05266,-3.5652 l -3.05267,-2.5686 3.30267,-2.8668 3.30266,-2.8668 -3.5,-3.0448 -3.5,-3.0449 2.5,-1.9329 c 1.375,-1.0631 2.8375,-1.9429 3.25,-1.9552 1.87901,-0.056 0.45004,-3.0996 -2.41176,-5.1374 l -3.16175,-2.2513 3.25948,-2.7212 c 3.42008,-2.8552 3.58849,-5.4022 0.5253,-7.9444 -1.94223,-1.612 -1.84603,-3.8853 0.26304,-6.2158 1.63242,-1.8038 1.63242,-2.0654 0,-4.9097 -2.11667,-3.6881 -2.16721,-5.2299 -0.22431,-6.8424 1.94244,-1.6121 1.90531,-3.7375 -0.10034,-5.7432 -1.17355,-1.1736 -1.43601,-2.628 -0.98414,-5.4539 0.46812,-2.9274 0.25191,-3.9933 -0.89966,-4.4352 -1.93606,-0.7429 -1.94211,-6.6104 -0.0159,-15.3677 2.09264,-9.5137 1.84168,-14.2514 -1.12724,-21.2801 -1.44498,-3.421 -2.84963,-8.94561 -3.12143,-12.27704 -0.71208,-8.72776 0.25611,-9.44286 12.78492,-9.44286 11.57146,0 11.96715,0.32045 11.95818,9.68426 -0.008,7.92804 -1.51949,12.95824 -4.09735,13.63244 -2.41128,0.6305 -2.25801,3.4268 0.27526,5.022 2.36116,1.4868 6.82766,-0.6832 6.82766,-3.3173 0,-1.1118 0.93087,-2.9523 2.06859,-4.09 3.30706,-3.3071 3.89429,-14.4963 3.91365,-74.5721 l 0.0178,-55.14071 10.95292,-0.71551 c 13.63174,-0.89052 24.95674,0.0979 25.78267,2.25025 0.32411,0.84461 -0.2455,6.75813 -1.2658,13.14116 -1.47344,9.21791 -1.94503,19.01179 -2.29228,47.60551 -0.46471,38.26567 1.62924,206.0823 2.69172,215.7242 l 0.63078,5.7241 28,-9.2871 c 26.83535,-8.9007 28.01306,-9.3977 28.3139,-11.9479 0.56128,-4.7581 -4.63683,-21.1716 -26.9072,-84.9622 -12.04869,-34.5118 -21.9067,-63.14392 -21.9067,-63.62681 0,-3.08471 38.86429,-14.66 41.24109,-12.2832 0.565,0.565 2.21174,4.5444 3.65942,8.84309 l 2.63214,7.81582 5.08272,-0.12632 c 3.16184,-0.0786 10.25429,-1.89835 18.7669,-4.8152 7.5263,-2.57888 14.68173,-4.54704 15.90095,-4.37368 1.84346,0.26212 2.26954,1.05083 2.53005,4.6834 0.50082,6.9832 -1.91664,8.77172 -21.05231,15.5752 -10.3633,3.6845 -12.76096,5.6587 -12.76096,10.5067 0,6.4997 1.39499,6.7542 14.73688,2.6882 16.89809,-5.1498 17.01961,-5.1687 19.40579,-3.0092 1.13415,1.0264 2.74686,3.1904 3.5838,4.8088 1.42992,2.7652 1.39094,3.0486 -0.64614,4.6981 -1.19232,0.9655 -7.93896,3.5749 -14.99253,5.7987 -14.96793,4.719 -16.26272,5.7281 -13.62774,10.621 2.96831,5.5118 4.13897,5.5305 22.18916,0.3546 12.57633,-3.6063 14.29994,-3.6166 17.66369,-0.1056 5.8794,6.1368 3.41205,8.3198 -16.63452,14.7178 -6.50188,2.0751 -12.80188,4.5723 -14,5.5494 -2.17736,1.7757 -2.17748,1.7783 -0.25817,5.376 2.79803,5.2449 5.15043,5.4343 19.57978,1.5761 17.67387,-4.7258 20.29249,-4.8905 23.45757,-1.4753 5.21147,5.6233 4.08272,6.6516 -14.82442,13.506 -15.28925,5.5428 -18.18891,7.4752 -17.96344,11.9708 0.20331,4.0537 2.6623,6.1577 6.24198,5.3408 1.42357,-0.3249 9.03591,-2.5652 16.9163,-4.9785 16.39779,-5.0216 19.23899,-5.2951 22.2148,-2.1378 6.13419,6.5082 5.48563,7.164 -13.72683,13.8805 -14.80102,5.1743 -20.98667,8.2566 -21.81655,10.8713 -0.88959,2.8029 0.37919,8.0144 2.11316,8.6798 0.78319,0.3005 8.72825,-1.5989 17.65571,-4.2209 27.49469,-8.0753 36.72805,-10.3504 46.36771,-11.4253 10.17209,-1.1343 68.55267,-1.2498 77.36402,-0.153 l 5.50001,0.6845 -38.00001,12.6421 c -20.9,6.9531 -70.44496,23.0256 -110.09992,35.7165 l -72.09992,23.0745 -51.75939,0 -51.75939,0 0.38368,-7.5979 z m 30.01049,-25.525 c 1.05989,-14.7987 0.43564,-106.4792 -0.76687,-112.6271 -0.99837,-5.1042 -2.74638,-3.9382 -2.14148,1.4284 0.63763,5.657 -0.48936,8.4309 -4.35243,10.7129 -3.47606,2.0533 -3.5733,2.8752 -0.8009,6.7687 l 2.11389,2.9686 -2.2404,2.3848 c -2.28518,2.4325 -2.2139,3.345 0.55787,7.1423 1.46527,2.0075 1.41513,2.3033 -0.72891,4.3008 l -2.30242,2.145 2.20403,3.8296 c 2.18643,3.799 2.18837,3.8437 0.24303,5.6042 -2.43934,2.2076 -2.43272,3.3048 0.039,6.4647 2.65094,3.389 2.49233,5.0175 -0.75,7.7001 l -2.75,2.2753 3.5,2.9605 3.5,2.9605 -3.5,3.0337 -3.5,3.0337 3.47478,2.9258 3.47478,2.9258 -2.47478,2.059 c -1.36113,1.1325 -2.81228,2.074 -3.22478,2.0923 -1.73364,0.077 -0.53104,2.5704 2.4332,5.0451 l 3.18319,2.6574 -3.18319,2.3535 c -3.95506,2.9241 -3.9883,4.0705 -0.1832,6.3182 1.65,0.9747 3,2.1641 3,2.6432 0,0.479 -1.4625,2.0352 -3.25,3.4581 l -3.25,2.5871 2.13296,1.7354 c 2.73571,2.2257 4.36704,5.4399 4.36704,8.6045 0,1.3753 0.46672,3.7282 1.03716,5.2285 1.8958,4.9864 3.07973,1.0611 4.13841,-13.7206 z m 31.13836,-146.8771 c 1.17361,-4.40669 0.11706,-81.64786 -1.30941,-95.72651 -1.40905,-13.90688 -3.54352,-18.93819 -5.52504,-13.02349 -1.24469,3.71532 -1.77535,91.17757 -0.61593,101.51677 1.18704,10.58553 1.5384,11.46283 4.42171,11.04043 1.44044,-0.2111 2.38824,-1.4025 3.02867,-3.8072 z m 306.6861,112.0436 c -15.125,-0.4032 -28.85,-1.0843 -30.5,-1.5135 -1.65,-0.4292 -3.70996,-1.6678 -4.5777,-2.7525 -2.42204,-3.0277 -13.27594,-3.79 -65.15897,-4.5764 l -46.26334,-0.7012 -24.63012,-48.7417 -24.63014,-48.7417 4.85528,-22.25831 c 2.6704,-12.24206 10.95411,-50.38329 18.40826,-84.75829 18.68759,-86.17842 18.11545,-83.89585 21.34919,-85.17328 4.78995,-1.89218 46.6351,-2.86415 111.64754,-2.59333 l 64,0.26661 3.7757,14.99553 c 2.07663,8.24754 9.38117,40.60207 16.2323,71.89897 6.85113,31.29689 12.5857,57.03253 12.74347,57.19031 0.59974,0.59974 25.1571,-2.64598 30.57455,-4.041 3.12069,-0.8036 14.89899,-4.64938 26.17399,-8.54619 11.275,-3.89682 40.075,-13.39318 64,-21.10303 95.4034,-30.74381 102.00001,-32.96084 102.00001,-34.28069 0,-0.7235 -0.51372,-2.7891 -1.14159,-4.59022 l -1.14159,-3.27477 -6.10841,0.52695 c -7.54806,0.65115 -25.36707,5.82969 -81.44843,23.67047 -92.18709,29.32684 -123.82505,39.05367 -127.0279,39.05367 -4.27778,0 -5.55773,-7.31637 -1.8821,-10.75834 3.45051,-3.23116 9.22394,-5.37608 42.48241,-15.78294 118.05259,-36.93966 162.02811,-51.81922 166.56929,-56.3604 1.37539,-1.37539 -1.8281,-6.09832 -4.1364,-6.09832 -4.77672,0 -45.81191,12.00298 -119.94071,35.08319 -87.01911,27.09365 -91.33796,28.34621 -92.33149,26.77808 -1.48391,-2.3421 -0.97921,-7.47337 0.90256,-9.17635 4.62592,-4.18639 21.69702,-10.08724 125.20435,-43.27848 55.26585,-17.72185 77.49203,-25.91908 78.68136,-29.01844 0.35138,-0.91567 -0.13104,-4.86507 -1.07205,-8.77643 l -1.71092,-7.11157 2.50167,-2.15977 c 4.36009,-3.76419 36.8873,-14.45288 38.6421,-12.69808 1.07892,1.07892 12.69718,33.35098 30.76368,85.45228 16.05665,46.30505 17.76765,51.6649 16.80235,52.63275 -1.123,1.12595 -41.66191,1.56932 -44.57047,0.48747 -1.95061,-0.72554 -2.48828,-1.66416 -2.58734,-4.5168 -0.28291,-8.14669 -4.09881,-8.47972 -25.64752,-2.23839 -24.71306,7.15785 -39.48915,8.8256 -59.20181,6.68201 l -5.89897,-0.64147 28.75076,-9.30767 c 31.83978,-10.3077 48.35598,-16.40718 51.64995,-19.07447 2.01531,-1.63191 2.0706,-1.97955 0.74585,-4.6902 -2.6111,-5.34274 -6.86051,-4.42544 -68.34863,14.75398 -23.10001,7.20538 -47.85001,14.78281 -55.00001,16.83875 -11.5559,3.32282 -12.61121,3.80351 -9.5,4.3272 1.925,0.32403 43.55,1.05634 92.50001,1.62735 48.95,0.57101 102.61248,1.31194 119.24998,1.6465 l 30.25,0.60829 0,77.72207 0,77.7221 -48.75,0.6844 c -53.74263,0.7545 -61.1869,1.2944 -64.81274,4.7007 -1.74654,1.6408 -4.29542,2.454 -9.65512,3.0805 -9.45714,1.1055 -237.92895,1.86 -273.78214,0.9041 z M 540.03349,450.05983 c 26.24846,-4.95 48.10357,-9 48.56692,-9 0.46335,0 1.06521,-1.4625 1.33747,-3.25 0.27225,-1.7875 0.76665,-40.49321 1.09867,-86.01269 l 0.60365,-82.76269 -35.70061,0.26269 -35.70062,0.26269 -8.36576,38.5 C 487.32025,421.05491 484.8318,433.79175 485.84,441.30846 c 0.40699,3.03429 5.65008,17.73197 6.33126,17.74807 0.0758,0 21.61377,-4.0467 47.86223,-8.9967 z m 85.50001,-21.20074 c 48.63341,-18.56655 67.03091,-26.41458 73.75,-31.4604 2.65055,-1.99047 3.24665,-3.12293 3.23186,-6.13975 -0.0237,-4.82411 -5.84747,-33.32252 -16.65011,-81.47616 -7.81351,-34.82931 -8.90949,-38.81907 -10.76544,-39.18976 -1.13647,-0.22699 -19.05381,-0.68998 -39.81631,-1.02886 l -37.75001,-0.61615 0,85.1233 0,85.1233 2.25,-0.68202 c 1.2375,-0.37511 12.825,-4.71919 25.75001,-9.6535 z"
       style="fill:#080808" />
  </g>
</svg>
