<?xml version="1.0" encoding="UTF-8" standalone="no"?>
<svg
   xmlns:dc="http://purl.org/dc/elements/1.1/"
   xmlns:cc="http://creativecommons.org/ns#"
   xmlns:rdf="http://www.w3.org/1999/02/22-rdf-syntax-ns#"
   xmlns:svg="http://www.w3.org/2000/svg"
   xmlns="http://www.w3.org/2000/svg"
   version="1.1"
   id="svg2"
   viewBox="0 0 249.99998 242.67498"
   height="68.488365mm"
   width="70.55555mm">
  <defs
     id="defs4" />
  <metadata
     id="metadata7">
    <rdf:RDF>
      <cc:Work
         rdf:about="">
        <dc:format>image/svg+xml</dc:format>
        <dc:type
           rdf:resource="http://purl.org/dc/dcmitype/StillImage" />
        <dc:title></dc:title>
      </cc:Work>
    </rdf:RDF>
  </metadata>
  <g
     transform="translate(692.54227,-409.72713)"
     id="layer1">
    <path
       id="path3450"
       d="m -487.66992,649.38938 c -5.10558,-3.41077 -8.61776,-9.92088 -8.62041,-15.97871 -0.002,-4.66579 6.81423,-19.97433 14.61938,-32.83344 l 4.41547,-7.27457 4.42278,7.27457 c 8.18938,13.46987 14.04076,27.26217 14.03576,33.08375 -0.0126,14.66404 -16.78745,23.80209 -28.87298,15.7284 z m -24.6104,-83.72509 0.36305,-10.3125 5.3125,-0.38437 5.3125,-0.38438 0,-18.67812 0,-18.67813 -19.375,0 -19.375,0 0,5 0,5 -10,0 -10,0 0,-34.375 0,-34.375 10,0 10,0 0,5 0,5 31.41748,0 c 19.92545,0 33.15941,0.5219 36.17967,1.42679 6.33839,1.89903 13.09294,7.63231 16.50163,14.00662 2.63099,4.91999 2.79739,6.90819 3.18074,38.00409 l 0.40452,32.8125 4.90798,0 4.90798,0 0,10.625 0,10.625 -35.05055,0 -35.05055,0 0.36305,-10.3125 z m -82.76195,-43.36294 0,-4.92545 -33.4375,-0.38705 c -29.78848,-0.34482 -33.91494,-0.64174 -37.8125,-2.72078 -6.14648,-3.27866 -9.81586,-6.87205 -12.93415,-12.66628 -2.52902,-4.6993 -2.7151,-7.01093 -3.09406,-38.4375 l -0.40321,-33.4375 -4.90929,0 -4.90929,0 0,-10 0,-10 35,0 35,0 0,9.92813 0,9.92813 -5.3125,0.38437 -5.3125,0.38437 -0.34506,19.0625 -0.34505,19.0625 19.40755,0 19.40756,0 0,-5 0,-5 10,0 10,0 0,34.375 0,34.375 -10,0 -10,0 0,-4.92544 z"
       style="fill:#010101" />
  </g>
</svg>
