<svg xmlns="http://www.w3.org/2000/svg" viewBox="0 0 600.94556 640.57737" height="683.282" width="641.009"><path d="M454.013 639.92c-11.032-1.136-33.299-6.73-44.62-11.208-8.116-3.21-8.117-3.212-4.119-3.505 2.2-.162 9.4.397 16 1.242s27.187 2.077 45.75 2.738c40.927 1.457 91.83.058 116.745-3.208 8.522-1.117 16.161-1.903 16.977-1.746 2.85.55-25.573 8.774-36.972 10.699-6.325 1.068-18.925 2.67-28 3.56-19.586 1.921-68.659 2.779-81.76 1.429zm7.261-30.853c-5.5-.435-11.575-1.112-13.5-1.505-5.592-1.142-20.424-5.666-21.296-6.496-1.51-1.439 18.95-2.056 67.796-2.045 47.419.011 69.687.865 73.153 2.805 1.521.851 1.5 1.02-.243 1.936-2.477 1.3-13.1 2.982-26.91 4.258-14.658 1.354-66.447 2.04-79 1.047zm-231.808-36.039c-7.484-2.924-15.147-9.368-18.37-15.446-3.615-6.818-4.35-16.923-5.285-72.582-.893-53.22-1.483-62.736-4.587-74-1.857-6.74-28.592-61.287-29.528-60.247-.37.411-3.252 7.722-6.407 16.247-12.087 32.662-30.987 66.03-68.82 121.5-30.394 44.565-41.96 59.587-50.959 66.194-4.92 3.612-5.57 3.806-12.71 3.806-5.89 0-8.569-.513-12.326-2.363-10.16-5.003-19.222-17.019-20.336-26.965-.464-4.136.054-5.844 4.505-14.881 7.34-14.9 17.792-31.844 41.507-67.291 11.592-17.325 24.6-37.35 28.908-44.5 19.829-32.91 33.354-65.821 71.712-174.5 29.827-84.505 38.273-106.188 47.535-122.031 6.205-10.614 10.646-15.419 17.245-18.653 4.822-2.365 6.984-2.807 13.724-2.807 9.882 0 15.86 2.623 25.529 11.2 14.462 12.83 27.704 29.916 54.474 70.291 33.612 50.696 59.977 94.252 65.882 108.842 2.974 7.349 3.089 8.17 2.834 20.335-.155 7.373.138 12.926.7 13.272 1.167.722 13.92-5.95 36.067-18.868 22.383-13.057 25.281-13.663 28.499-5.963 3.337 7.988-2.212 12.377-41.176 32.565l-16.191 8.389 23.803 51.464c22.129 47.844 48.543 104.311 73.02 156.1l10.227 21.638 34.166.495c35.296.512 40.73 1.112 42.654 4.71 1.533 2.863 1.222 9.668-.522 11.412-3.578 3.578-8.158 3.924-57.626 4.352-50.374.435-67.001-.308-71.404-3.193-2.978-1.952-3.998-5.71-2.829-10.427 1.282-5.174 4.383-6.28 19.882-7.087 12.881-.672 15.511-1.198 15.511-3.104 0-3.418-60.345-134.26-86.951-188.53-19.95-40.694-26.896-51.206-35.33-53.478-8.67-2.334-20.067-16.38-50.285-61.967C276.335 216.975 267.926 206 264.827 206c-2.38 0-6.35 5.114-8.931 11.5-1.556 3.85-9.024 26.501-16.596 50.336l-13.766 43.337 5.78 12.163c3.18 6.69 13.81 28.25 23.621 47.909l17.839 35.744-.016 52.756c-.009 29.015-.458 58.155-.998 64.755-2.005 24.486-5.856 37.44-13.068 43.955-6.93 6.261-19.765 8.27-29.226 4.573zm51.308-484.066c-15.845-3.306-31.492-18.897-36.542-36.41C237.09 27.781 259.842 0 287.274 0c11.32 0 21.89 4.369 30.547 12.626 10.134 9.666 14.552 21.063 13.692 35.319-.858 14.235-6.497 25.108-17.263 33.288-9.063 6.887-22.57 10.005-33.476 7.73z" fill="#434343"/></svg>