<svg xmlns="http://www.w3.org/2000/svg" viewBox="0 0 765.21858 628.33986" height="670.23" width="816.233"><path d="M357.219 503.614l-47.5-.548-5.34-2.957c-6.36-3.523-14.038-11.624-17.304-18.257-3.45-7.009-3.256-16.904.483-24.547 3.415-6.98 11.004-14.02 16.858-15.64 7.578-2.095 31.447-2.977 114.943-4.245 116.16-1.764 263.02.503 274.575 4.239 5.058 1.635 12.862 9.331 15.925 15.705 2.214 4.608 2.749 7.141 2.785 13.202.053 8.801-2.085 14.404-7.994 20.945-7.766 8.595-16.25 10.625-50.431 12.065-23.24.98-213.214 1.003-297 .037zm319.688-6.85c9.78-1.254 15.594-3.651 21.256-8.767 8.978-8.11 11.226-19.37 5.735-28.723-2.922-4.978-8.654-9.803-14.68-12.357-5.935-2.517-52.25-3.287-198-3.295-159.858-.01-178.552.604-189.994 6.233-8.498 4.18-13.32 17.167-10.052 27.07 2.587 7.838 14.367 17.513 23.354 19.18 8.329 1.544 78.808 2.19 213.193 1.954 91.033-.16 143.901-.619 149.188-1.296zm-362.719-4.685c-8.69-2.772-17.929-13.806-17.96-21.447-.025-6.378 6.688-14.83 15.25-19.198 9.316-4.753 23.917-1.091 29.542 7.408 2.3 3.475 2.699 5.135 2.699 11.23 0 6.215-.397 7.792-3.027 12.046-5.586 9.036-16.521 13.146-26.504 9.961zm353.916-.892c-9.333-3.336-15.892-11.625-15.876-20.067.019-10.247 9.146-20.555 19.585-22.12 14.343-2.151 27.513 9.691 26.182 23.543-1.372 14.275-16.213 23.532-29.891 18.644zm-261.385-1.566c-33.276-.791-51.483-1.785-53.199-2.902-2.49-1.623-3.686-6.34-4.094-16.153-.402-9.7-.275-10.644 1.665-12.393 6.14-5.532 28.55-6.522 147.628-6.522 91.555 0 131.718.921 140.263 3.216 8.925 2.397 9.513 3.42 9.013 15.697-.436 10.723-1.816 15.563-4.699 16.477-7.5 2.38-170.291 4.156-236.577 2.58zM.384 493.968c.348-6.907.631-7.778 3.109-9.583 1.5-1.092 2.726-2.893 2.726-4.001 0-1.109 1.446-3.366 3.214-5.018l3.214-3.002-3.464-2.894-3.464-2.893 2.5-1.983c1.375-1.09 2.837-1.993 3.25-2.006 1.879-.056.45-3.1-2.412-5.137L5.895 455.2l3.162-2.64c1.739-1.452 3.162-3.024 3.162-3.494 0-.47-1.423-2.042-3.162-3.494l-3.162-2.64 3.162-2.25c1.739-1.239 3.162-2.7 3.162-3.248 0-.549-1.374-2.153-3.053-3.566L6.113 431.3l3.303-2.867 3.303-2.867-3.5-3.045-3.5-3.045 2.5-1.932c1.375-1.064 2.837-1.943 3.25-1.956 1.879-.056.45-3.1-2.412-5.137L5.895 408.2l3.26-2.722c3.42-2.855 3.588-5.402.525-7.944-1.942-1.612-1.846-3.885.263-6.216 1.632-1.804 1.632-2.065 0-4.91-2.117-3.688-2.167-5.23-.224-6.842 1.942-1.612 1.905-3.737-.1-5.743-1.174-1.174-1.437-2.628-.985-5.454.468-2.927.252-3.993-.9-4.435-1.936-.743-1.942-6.61-.015-15.368 2.092-9.514 1.841-14.251-1.128-21.28-1.445-3.42-2.85-8.946-3.121-12.277-.712-8.728.256-9.443 12.785-9.443 11.571 0 11.967.32 11.958 9.684-.008 7.928-1.52 12.959-4.097 13.633-2.412.63-2.258 3.427.275 5.022 2.361 1.487 6.828-.683 6.828-3.317 0-1.112.93-2.953 2.068-4.09 3.307-3.308 3.894-14.497 3.914-74.573l.018-55.14 10.953-.716c13.631-.89 24.956.098 25.782 2.25.324.845-.245 6.759-1.266 13.142-1.473 9.218-1.945 19.011-2.292 47.605-.465 38.266 1.63 206.082 2.692 215.724l.63 5.724 28-9.287c26.836-8.9 28.014-9.397 28.315-11.948.56-4.758-4.637-21.171-26.908-84.962-12.048-34.512-21.906-63.144-21.906-63.627 0-3.084 38.864-14.66 41.24-12.283.566.565 2.212 4.545 3.66 8.843l2.632 7.816 5.083-.126c3.162-.079 10.254-1.898 18.767-4.815 7.526-2.58 14.682-4.547 15.9-4.374 1.844.262 2.27 1.05 2.53 4.683.502 6.984-1.916 8.772-21.051 15.576-10.364 3.684-12.761 5.658-12.761 10.506 0 6.5 1.395 6.754 14.736 2.688 16.899-5.15 17.02-5.168 19.406-3.009 1.134 1.027 2.747 3.19 3.584 4.81 1.43 2.764 1.391 3.048-.646 4.697-1.192.966-7.939 3.575-14.993 5.799-14.968 4.719-16.262 5.728-13.627 10.62 2.968 5.513 4.139 5.531 22.189.355 12.576-3.606 14.3-3.616 17.664-.105 5.879 6.137 3.412 8.32-16.635 14.718-6.502 2.075-12.802 4.572-14 5.55-2.177 1.775-2.177 1.777-.258 5.375 2.798 5.245 5.15 5.434 19.58 1.576 17.673-4.726 20.292-4.89 23.457-1.475 5.212 5.623 4.083 6.651-14.824 13.506-15.29 5.543-18.19 7.475-17.964 11.97.204 4.054 2.663 6.158 6.242 5.341 1.424-.324 9.036-2.565 16.917-4.978 16.397-5.022 19.239-5.295 22.214-2.138 6.135 6.508 5.486 7.164-13.726 13.88-14.801 5.175-20.987 8.257-21.817 10.872-.89 2.803.38 8.014 2.113 8.68.783.3 8.728-1.6 17.656-4.221 27.495-8.075 36.728-10.35 46.368-11.425 10.172-1.135 68.552-1.25 77.364-.153l5.5.684-38 12.642c-20.9 6.953-70.445 23.026-110.1 35.717l-72.1 23.074H0l.384-7.598zm30.01-25.525c1.06-14.798.436-106.479-.767-112.627-.998-5.104-2.746-3.938-2.141 1.429.637 5.657-.49 8.43-4.353 10.712-3.476 2.054-3.573 2.876-.8 6.77l2.113 2.968-2.24 2.385c-2.285 2.432-2.214 3.345.558 7.142 1.465 2.007 1.415 2.303-.73 4.3l-2.301 2.146 2.204 3.83c2.186 3.798 2.188 3.843.243 5.603-2.44 2.208-2.433 3.305.039 6.465 2.65 3.39 2.492 5.018-.75 7.7l-2.75 2.276 3.5 2.96 3.5 2.96-3.5 3.034-3.5 3.034 3.474 2.926 3.475 2.926-2.475 2.059c-1.36 1.132-2.812 2.074-3.224 2.092-1.734.077-.531 2.57 2.433 5.045l3.183 2.657-3.183 2.354c-3.955 2.924-3.989 4.07-.183 6.318 1.65.975 3 2.164 3 2.643 0 .48-1.463 2.035-3.25 3.458l-3.25 2.587 2.133 1.736c2.735 2.226 4.367 5.44 4.367 8.604 0 1.376.466 3.729 1.037 5.229 1.896 4.986 3.08 1.061 4.138-13.72zm31.139-146.877c1.173-4.406.117-81.648-1.31-95.726-1.409-13.907-3.543-18.939-5.525-13.024-1.245 3.716-1.775 91.178-.616 101.517 1.187 10.585 1.539 11.463 4.422 11.04 1.44-.21 2.388-1.402 3.029-3.807zM368.219 433.61c-15.125-.403-28.85-1.085-30.5-1.514-1.65-.429-3.71-1.668-4.578-2.752-2.422-3.028-13.276-3.79-65.159-4.577l-46.263-.7-24.63-48.743-24.63-48.741 4.855-22.259c2.67-12.242 10.954-50.383 18.408-84.758 18.687-86.178 18.115-83.896 21.35-85.173 4.789-1.892 46.634-2.864 111.647-2.593l64 .266 3.775 14.996c2.077 8.247 9.382 40.602 16.233 71.899 6.85 31.297 12.585 57.032 12.743 57.19.6.6 25.157-2.646 30.575-4.041 3.12-.804 14.899-4.65 26.174-8.546 11.275-3.897 40.075-13.393 64-21.103 95.403-30.744 102-32.961 102-34.28 0-.724-.514-2.79-1.142-4.591l-1.142-3.275-6.108.527c-7.548.651-25.367 5.83-81.448 23.67-92.187 29.327-123.825 39.054-127.028 39.054-4.278 0-5.558-7.316-1.882-10.758 3.45-3.231 9.224-5.376 42.482-15.783 118.053-36.94 162.028-51.82 166.57-56.36 1.375-1.376-1.829-6.099-4.137-6.099-4.777 0-45.812 12.003-119.94 35.083-87.02 27.094-91.339 28.347-92.332 26.778-1.484-2.342-.98-7.473.902-9.176 4.626-4.186 21.697-10.087 125.205-43.278 55.265-17.722 77.492-25.92 78.681-29.019.351-.915-.131-4.865-1.072-8.776l-1.711-7.112 2.502-2.16c4.36-3.764 36.887-14.452 38.642-12.698 1.079 1.08 12.697 33.351 30.763 85.453 16.057 46.305 17.768 51.665 16.803 52.632-1.123 1.126-41.662 1.57-44.57.488-1.951-.726-2.489-1.664-2.588-4.517-.283-8.147-4.099-8.48-25.647-2.238-24.714 7.158-39.49 8.825-59.202 6.682l-5.9-.642 28.751-9.307c31.84-10.308 48.356-16.408 51.65-19.075 2.016-1.632 2.071-1.98.746-4.69-2.61-5.343-6.86-4.426-68.348 14.754-23.1 7.205-47.85 14.783-55 16.839-11.556 3.322-12.612 3.803-9.5 4.327 1.925.324 43.55 1.056 92.5 1.627s102.612 1.312 119.25 1.647l30.25.608V424.24l-48.75.684c-53.743.755-61.187 1.295-64.813 4.701-1.747 1.641-4.296 2.454-9.655 3.08-9.457 1.106-237.93 1.86-273.782.905zm-123.5-109.044c26.248-4.95 48.103-9 48.567-9 .463 0 1.065-1.462 1.337-3.25.272-1.787.767-40.493 1.099-86.012l.603-82.763-35.7.263-35.7.262-8.367 38.5c-24.553 112.995-27.041 125.732-26.033 133.249.407 3.034 5.65 17.732 6.331 17.748.076 0 21.614-4.047 47.863-8.997zm85.5-21.2c48.633-18.567 67.03-26.415 73.75-31.46 2.65-1.991 3.246-3.124 3.231-6.14-.023-4.825-5.847-33.323-16.65-81.477-7.813-34.83-8.91-38.819-10.765-39.19-1.137-.227-19.054-.69-39.816-1.028l-37.75-.617v170.247l2.25-.682c1.237-.375 12.825-4.72 25.75-9.654z" fill="#080808"/></svg>