<svg xmlns="http://www.w3.org/2000/svg" viewBox="0 0 249.99998 242.67498" height="258.854" width="266.667"><path d="M204.872 239.662c-5.105-3.41-8.617-9.92-8.62-15.978-.002-4.666 6.814-19.975 14.62-32.834l4.415-7.274 4.423 7.274c8.189 13.47 14.04 27.262 14.035 33.084-.012 14.664-16.787 23.802-28.873 15.728zm-24.61-83.725l.363-10.312 5.313-.385 5.312-.384V107.5H152.5v10h-20V48.75h20v10h31.417c19.926 0 33.16.522 36.18 1.426 6.339 1.9 13.093 7.633 16.502 14.007 2.63 4.92 2.797 6.908 3.18 38.004l.405 32.813H250v21.25h-70.101l.363-10.313zM97.5 112.574v-4.925l-33.437-.387c-29.789-.345-33.915-.642-37.813-2.721-6.146-3.279-9.816-6.872-12.934-12.666-2.53-4.7-2.715-7.011-3.094-38.438L9.819 20H0V0h70v19.856l-5.312.384-5.313.385-.345 19.062-.345 19.063H97.5v-10h20v68.75h-20v-4.926z" fill="#010101"/></svg>